inDegrees=no
num_controls=7
num_derivatives=13
num_iterations=158
num_multipliers=7
num_parameters=0
num_slacks=7
num_states=26
objective=6.547257
objective_accelerations=0.656049
objective_balance=0.083893
objective_effort=0.539520
objective_height=5.219703
objective_ligament=0.048093
solver_duration=1386.507456
status=Solve_Succeeded
success=true
DataType=double
version=3
OpenSimVersion=4.4-2022-07-23-0e9fedc
endheader
time	/jointset/ground_pelvis/pelvis_tilt/value	/jointset/ground_pelvis/pelvis_tx/value	/jointset/ground_pelvis/pelvis_ty/value	/jointset/hip_r/hip_flexion_r/value	/jointset/hip_r/hip_adduction_r/value	/jointset/hip_r/hip_rotation_r/value	/jointset/back/lumbar_extension/value	/jointset/patellofemoral_r/patellar_flexion_r/value	/jointset/knee_r/knee_flexion_r/value	/jointset/knee_r/knee_adduction_r/value	/jointset/knee_r/knee_rotation_r/value	/jointset/ankle_r/ankle_angle_r/value	/jointset/subtalar_r/subtalar_angle_r/value	/jointset/ground_pelvis/pelvis_tilt/speed	/jointset/ground_pelvis/pelvis_tx/speed	/jointset/ground_pelvis/pelvis_ty/speed	/jointset/hip_r/hip_flexion_r/speed	/jointset/hip_r/hip_adduction_r/speed	/jointset/hip_r/hip_rotation_r/speed	/jointset/back/lumbar_extension/speed	/jointset/patellofemoral_r/patellar_flexion_r/speed	/jointset/knee_r/knee_flexion_r/speed	/jointset/knee_r/knee_adduction_r/speed	/jointset/knee_r/knee_rotation_r/speed	/jointset/ankle_r/ankle_angle_r/speed	/jointset/subtalar_r/subtalar_angle_r/speed	/forceset/tau_hip_flexion_r	/forceset/tau_hip_adduction_r	/forceset/tau_hip_rotation_r	/forceset/tau_knee_flexion_r	/forceset/tau_ankle_angle_r	/forceset/tau_subtalar_angle_r	/forceset/tau_lumbar_extension	lambda_cid13_p0	lambda_cid14_p0	lambda_cid14_p1	lambda_cid14_p2	lambda_cid14_p3	lambda_cid14_p4	lambda_cid14_p5	/jointset/ground_pelvis/pelvis_tilt/accel	/jointset/ground_pelvis/pelvis_tx/accel	/jointset/ground_pelvis/pelvis_ty/accel	/jointset/hip_r/hip_flexion_r/accel	/jointset/hip_r/hip_adduction_r/accel	/jointset/hip_r/hip_rotation_r/accel	/jointset/back/lumbar_extension/accel	/jointset/patellofemoral_r/patellar_flexion_r/accel	/jointset/knee_r/knee_flexion_r/accel	/jointset/knee_r/knee_adduction_r/accel	/jointset/knee_r/knee_rotation_r/accel	/jointset/ankle_r/ankle_angle_r/accel	/jointset/subtalar_r/subtalar_angle_r/accel	gamma_cid13_p0	gamma_cid14_p0	gamma_cid14_p1	gamma_cid14_p2	gamma_cid14_p3	gamma_cid14_p4	gamma_cid14_p5
1	-0.333486736932019	-0.003268809458171831	0.650104904409152	1.509658722904119	-0.246114984262087	0.03651566227445988	-0.4363323129985824	1.415312624805845	1.415312624805796	0.02216494275390144	0.1745328522846601	0.4363234044607602	0.08454191775563959	0.0009931040080545564	0.003809749920258225	0.01615932968863486	-0.04416057333181	-0.0003279800759145726	-0.01307916637241783	0.0001514886670460169	-0.04804354974248195	-0.04804354974248011	-1.884738459148005e-05	1.050401723451245e-06	-0.006751382346432048	-0.002668038005492872	-0.3074606991826547	0.009035132903996403	0.01727908071684955	-0.4930342856174397	-0.01399157175967187	0.005831971136596247	0.3163529219068859	-0.04385847432289924	-53.777134997852	-6.618144728370909	1.212368435811627	15.49990145295962	-808.4754334485038	63.58602512368972	1.480566737765341	0.1457151708082766	1.866387538073382	-5.873985779894201	-0.05187663350690604	-1.179567825762949	0.02237134717695761	-5.327540418035053	-5.32754041803535	0.3011801356894463	0.009833990861773025	-1.173691809143833	-0.4802761409603823	1.353055463812751e-09	-1.716695812291956e-09	1.597268503979484e-08	1.024269307951363e-08	3.365395683449981e-09	-5.211174236244521e-09	1.984813269085738e-08
1.01	-0.333403915609116	-0.003223448834074714	0.6503596061368752	1.508924862651098	-0.2461206812471497	0.03632681528813565	-0.4363275695327907	1.414565995109342	1.414565995109386	0.02218040939423808	0.1745327866496576	0.436197121728259	0.08449147865848837	0.01553174239417831	0.005264217611655703	0.03477371421524914	-0.1025656054880311	-0.0008106130173680968	-0.0246880719518592	0.0009268352679642444	-0.1012880204568991	-0.1012880204569003	0.003115685084278327	-1.175353536985011e-05	-0.01851784731538982	-0.007421913520780991	-0.3084393744561779	0.009361276497375117	0.01728183114742451	-0.4918738015627579	-0.01555407985604229	0.00595857399739985	0.3172132879220578	-0.0438755350866275	-54.2863562971897	-6.648459810924009	1.212789855150195	15.84512661750075	-808.6888049744855	63.4457488011197	1.434599980282805	0.1455884264704314	1.857867462065049	-5.816880947249222	-0.0463324881692167	-1.151228854469051	0.1243886264618282	-5.323745384232279	-5.323745384232557	0.3201188534701118	-0.006467931507550198	-1.180027633236728	-0.4732553446153787	1.752252337515298e-09	3.879511171771549e-10	3.408055551547009e-08	1.92748171266365e-08	-2.682441943263833e-09	-6.000857030283295e-09	3.977235191621466e-08
1.02	-0.3331768903841001	-0.003163488361430728	0.650800232420287	1.507608328273764	-0.2461311797343676	0.03602194385992786	-0.4363112123954942	1.413286751708478	1.413286751708613	0.02222732716945626	0.1745326669061776	0.435952793587575	0.08439343838862375	0.02983388443017738	0.006729719629631892	0.0533442408262749	-0.1606953981947789	-0.001288280507005925	-0.03628405474867424	0.002473074265389077	-0.1545662906148042	-0.154566290614806	0.006271379592523558	-9.771292968471606e-06	-0.03036046398294601	-0.01218827254816397	-0.3094180497296936	0.009687420090746761	0.01728458157802484	-0.4907133175080739	-0.01711658795241476	0.006085176858190137	0.3180736539372379	-0.04389952334071343	-54.80483132397026	-6.678811784588014	1.211408587165021	16.20403613259352	-809.0538995911799	63.31061606674631	1.433267467740404	0.1479220361240176	1.857615954955679	-5.818937889999534	-0.05088354314378941	-1.176983269237706	0.1765498264783854	-5.334300306732629	-5.334300306732443	0.3054125435645396	0.01279122676076493	-1.188922148863527	-0.4827728433793949	2.687714071661428e-09	1.121375786446313e-10	5.08467603603099e-08	2.972787136181216e-08	-3.065772460912073e-09	-9.384505165473e-09	5.922760430443186e-08
1.03	-0.3328081001064625	-0.003088727330218755	0.6514263175917478	1.505711881100001	-0.2461464102951169	0.03560123596307383	-0.4362752736341722	1.411474533200653	1.411474533200768	0.02230594491106375	0.1745326054769361	0.4355897079109833	0.08424773591808801	0.04387445530536942	0.008233340877531338	0.07186249237601119	-0.2185443247282337	-0.001755112271697653	-0.04785074530165751	0.004873330565210996	-0.2078856769370996	-0.2078856769370959	0.009458416846551307	-3.167358760144248e-06	-0.04226478400546945	-0.01694818186249953	-0.3101430112653497	0.009916015509601393	0.01731826792530428	-0.4896093087153627	-0.01810074578564287	0.006181591815203175	0.3188365785139125	-0.04393027279155289	-55.12300655382889	-6.682198529618113	1.200011627066596	16.31408328954636	-809.2606587006193	63.21803361512927	1.381995225453921	0.153209628585787	1.847382011896663	-5.760412797259266	-0.04416760368969775	-1.14549644228546	0.2955614166401944	-5.331998424439258	-5.331998424438559	0.3262917202004981	-0.005490487447469237	-1.192406663360935	-0.4719783938012739	3.628647896220251e-09	-1.879663728266978e-10	6.759927473952895e-08	4.019542488462102e-08	-3.391301885610631e-09	-1.279462233475609e-08	7.867807131675986e-08
